<svg width="226" height="48" viewBox="0 0 226 48" fill="none" xmlns="http://www.w3.org/2000/svg">
<path d="M35.0795 16.2727V9.90909H60.3636V16.2727H51.6136V39H43.8295V16.2727H35.0795ZM70.7969 39.3977C68.4295 39.3977 66.4029 38.929 64.7173 37.9915C63.0317 37.0445 61.7391 35.7282 60.8395 34.0426C59.9399 32.3475 59.4901 30.3826 59.4901 28.1477C59.4901 25.9129 59.9399 23.9527 60.8395 22.267C61.7391 20.572 63.0317 19.2557 64.7173 18.3182C66.4029 17.3712 68.4295 16.8977 70.7969 16.8977C73.1643 16.8977 75.1908 17.3712 76.8764 18.3182C78.562 19.2557 79.8546 20.572 80.7543 22.267C81.6539 23.9527 82.1037 25.9129 82.1037 28.1477C82.1037 30.3826 81.6539 32.3475 80.7543 34.0426C79.8546 35.7282 78.562 37.0445 76.8764 37.9915C75.1908 38.929 73.1643 39.3977 70.7969 39.3977ZM70.8537 33.6023C71.5166 33.6023 72.0895 33.3797 72.5724 32.9347C73.0554 32.4896 73.4295 31.8551 73.6946 31.0312C73.9598 30.2074 74.0923 29.2273 74.0923 28.0909C74.0923 26.9451 73.9598 25.965 73.6946 25.1506C73.4295 24.3267 73.0554 23.6922 72.5724 23.2472C72.0895 22.8021 71.5166 22.5795 70.8537 22.5795C70.1529 22.5795 69.5516 22.8021 69.0497 23.2472C68.5478 23.6922 68.1643 24.3267 67.8991 25.1506C67.634 25.965 67.5014 26.9451 67.5014 28.0909C67.5014 29.2273 67.634 30.2074 67.8991 31.0312C68.1643 31.8551 68.5478 32.4896 69.0497 32.9347C69.5516 33.3797 70.1529 33.6023 70.8537 33.6023ZM93.1832 39.2841C91.6302 39.2841 90.2003 38.8769 88.8935 38.0625C87.5961 37.2481 86.5545 36.0123 85.7685 34.3551C84.992 32.6979 84.6037 30.6098 84.6037 28.0909C84.6037 25.4583 85.0109 23.3182 85.8253 21.6705C86.6491 20.0227 87.7098 18.8153 89.0071 18.0483C90.3139 17.2812 91.687 16.8977 93.1264 16.8977C94.206 16.8977 95.1529 17.0871 95.9673 17.4659C96.7817 17.8352 97.4635 18.3324 98.0128 18.9574C98.562 19.5729 98.9787 20.25 99.2628 20.9886H99.3764V9.90909H107.217V39H99.4332V35.4205H99.2628C98.9598 36.1591 98.5241 36.822 97.956 37.4091C97.3973 37.9867 96.7154 38.446 95.9105 38.7869C95.1151 39.1184 94.206 39.2841 93.1832 39.2841ZM96.081 33.2614C96.8007 33.2614 97.4162 33.053 97.9276 32.6364C98.4484 32.2102 98.8461 31.6136 99.1207 30.8466C99.4048 30.0701 99.5469 29.1515 99.5469 28.0909C99.5469 27.0114 99.4048 26.0881 99.1207 25.321C98.8461 24.5445 98.4484 23.9527 97.9276 23.5455C97.4162 23.1288 96.8007 22.9205 96.081 22.9205C95.3613 22.9205 94.7457 23.1288 94.2344 23.5455C93.7325 23.9527 93.3442 24.5445 93.0696 25.321C92.8045 26.0881 92.6719 27.0114 92.6719 28.0909C92.6719 29.1705 92.8045 30.0985 93.0696 30.875C93.3442 31.642 93.7325 32.2339 94.2344 32.6506C94.7457 33.0578 95.3613 33.2614 96.081 33.2614ZM121.578 39.3977C119.211 39.3977 117.184 38.929 115.499 37.9915C113.813 37.0445 112.52 35.7282 111.621 34.0426C110.721 32.3475 110.271 30.3826 110.271 28.1477C110.271 25.9129 110.721 23.9527 111.621 22.267C112.52 20.572 113.813 19.2557 115.499 18.3182C117.184 17.3712 119.211 16.8977 121.578 16.8977C123.946 16.8977 125.972 17.3712 127.658 18.3182C129.343 19.2557 130.636 20.572 131.536 22.267C132.435 23.9527 132.885 25.9129 132.885 28.1477C132.885 30.3826 132.435 32.3475 131.536 34.0426C130.636 35.7282 129.343 37.0445 127.658 37.9915C125.972 38.929 123.946 39.3977 121.578 39.3977ZM121.635 33.6023C122.298 33.6023 122.871 33.3797 123.354 32.9347C123.837 32.4896 124.211 31.8551 124.476 31.0312C124.741 30.2074 124.874 29.2273 124.874 28.0909C124.874 26.9451 124.741 25.965 124.476 25.1506C124.211 24.3267 123.837 23.6922 123.354 23.2472C122.871 22.8021 122.298 22.5795 121.635 22.5795C120.934 22.5795 120.333 22.8021 119.831 23.2472C119.329 23.6922 118.946 24.3267 118.68 25.1506C118.415 25.965 118.283 26.9451 118.283 28.0909C118.283 29.2273 118.415 30.2074 118.68 31.0312C118.946 31.8551 119.329 32.4896 119.831 32.9347C120.333 33.3797 120.934 33.6023 121.635 33.6023Z" fill="#4EA8DE"/>
<path d="M151.479 39H142.956L152.558 9.90909H163.354L172.956 39H164.433L158.07 17.9205H157.842L151.479 39ZM149.888 27.5227H165.911V33.4318H149.888V27.5227ZM175.871 47.1818V17.1818H183.656V20.9886H183.826C184.11 20.25 184.527 19.5729 185.076 18.9574C185.625 18.3324 186.307 17.8352 187.121 17.4659C187.936 17.0871 188.883 16.8977 189.962 16.8977C191.402 16.8977 192.77 17.2812 194.067 18.0483C195.374 18.8153 196.435 20.0227 197.249 21.6705C198.073 23.3182 198.485 25.4583 198.485 28.0909C198.485 30.6098 198.092 32.6979 197.306 34.3551C196.53 36.0123 195.488 37.2481 194.181 38.0625C192.884 38.8769 191.459 39.2841 189.906 39.2841C188.883 39.2841 187.969 39.1184 187.164 38.7869C186.369 38.446 185.687 37.9867 185.119 37.4091C184.56 36.822 184.129 36.1591 183.826 35.4205H183.712V47.1818H175.871ZM183.542 28.0909C183.542 29.1515 183.679 30.0701 183.954 30.8466C184.238 31.6136 184.636 32.2102 185.147 32.6364C185.668 33.053 186.288 33.2614 187.008 33.2614C187.728 33.2614 188.338 33.0578 188.84 32.6506C189.352 32.2339 189.74 31.642 190.005 30.875C190.28 30.0985 190.417 29.1705 190.417 28.0909C190.417 27.0114 190.28 26.0881 190.005 25.321C189.74 24.5445 189.352 23.9527 188.84 23.5455C188.338 23.1288 187.728 22.9205 187.008 22.9205C186.288 22.9205 185.668 23.1288 185.147 23.5455C184.636 23.9527 184.238 24.5445 183.954 25.321C183.679 26.0881 183.542 27.0114 183.542 28.0909ZM201.77 47.1818V17.1818H209.554V20.9886H209.724C210.009 20.25 210.425 19.5729 210.974 18.9574C211.524 18.3324 212.205 17.8352 213.02 17.4659C213.834 17.0871 214.781 16.8977 215.861 16.8977C217.3 16.8977 218.669 17.2812 219.966 18.0483C221.273 18.8153 222.333 20.0227 223.148 21.6705C223.972 23.3182 224.384 25.4583 224.384 28.0909C224.384 30.6098 223.991 32.6979 223.205 34.3551C222.428 36.0123 221.386 37.2481 220.08 38.0625C218.782 38.8769 217.357 39.2841 215.804 39.2841C214.781 39.2841 213.867 39.1184 213.062 38.7869C212.267 38.446 211.585 37.9867 211.017 37.4091C210.458 36.822 210.027 36.1591 209.724 35.4205H209.611V47.1818H201.77ZM209.44 28.0909C209.44 29.1515 209.578 30.0701 209.852 30.8466C210.136 31.6136 210.534 32.2102 211.045 32.6364C211.566 33.053 212.187 33.2614 212.906 33.2614C213.626 33.2614 214.237 33.0578 214.739 32.6506C215.25 32.2339 215.638 31.642 215.903 30.875C216.178 30.0985 216.315 29.1705 216.315 28.0909C216.315 27.0114 216.178 26.0881 215.903 25.321C215.638 24.5445 215.25 23.9527 214.739 23.5455C214.237 23.1288 213.626 22.9205 212.906 22.9205C212.187 22.9205 211.566 23.1288 211.045 23.5455C210.534 23.9527 210.136 24.5445 209.852 25.321C209.578 26.0881 209.44 27.0114 209.44 28.0909Z" fill="#5E60CE"/>
<g clip-path="url(#clip0_1_187)">
<path d="M11.0214 12.933C14.1471 16.9011 15.8156 21.7944 15.7551 26.8155V28.0141L16.7864 28.6416C18.1188 29.4482 19.1126 30.6993 19.5865 32.1669C19.1704 31.8605 18.7351 31.5803 18.2831 31.3278L15.5331 29.7838L15.039 32.9001C14.9962 33.1755 14.9388 33.4485 14.8671 33.718H7.16138C7.0468 33.3655 6.9537 33.0129 6.86776 32.6463L6.24472 29.8261L3.70956 31.2362C3.28603 31.473 2.87711 31.7344 2.48495 32.0188C2.96812 30.5682 3.94111 29.3242 5.24211 28.4935L6.22323 27.866V26.7521C6.24093 21.7513 7.92955 16.8952 11.0286 12.933H11.0214ZM11.0286 10C10.8679 10.0004 10.7127 10.058 10.5917 10.1622L10.5273 10.2186C6.39766 14.7656 4.10454 20.6454 4.08196 26.745C2.32955 27.8643 1.03238 29.5543 0.417141 31.5197C-0.198101 33.485 -0.0922939 35.6007 0.716072 37.4971C1.56764 35.6455 2.99119 34.1058 4.78378 33.0975C4.96356 33.8642 5.20298 34.6161 5.49993 35.3467C5.53759 35.4871 5.62106 35.6114 5.73751 35.7006C5.85396 35.7898 5.99694 35.8388 6.14446 35.8402H16.0846C16.2851 35.8402 16.4856 35.6498 16.5859 35.3537C16.8757 34.6592 17.0777 33.9322 17.1874 33.1892C18.9834 34.1932 20.4082 35.7342 21.2551 37.5887C22.1123 35.7017 22.245 33.5727 21.6286 31.5967C21.0123 29.6206 19.6887 27.9319 17.9036 26.8437C17.9744 20.7082 15.6934 14.7718 11.5156 10.2186C11.4533 10.1501 11.3772 10.0952 11.2921 10.0576C11.2069 10.0199 11.1147 10.0003 11.0214 10H11.0286Z" fill="#4EA8DE"/>
<path d="M11.0213 26.1598C10.4713 26.1598 9.93351 25.9995 9.47587 25.699C9.01822 25.3986 8.66116 24.9715 8.44969 24.4716C8.23822 23.9716 8.18181 23.4213 8.28758 22.8898C8.39334 22.3584 8.65653 21.8697 9.04399 21.4853C9.43144 21.1009 9.92582 20.838 10.4648 20.7298C11.0038 20.6216 11.5632 20.6729 12.0726 20.8773C12.582 21.0816 13.0186 21.4298 13.3272 21.8781C13.6359 22.3263 13.8029 22.8545 13.8071 23.396C13.8157 23.7469 13.7539 24.0961 13.6254 24.4235C13.4969 24.751 13.304 25.0503 13.058 25.3043C12.8119 25.5583 12.5174 25.7622 12.1913 25.9041C11.8652 26.0461 11.5139 26.1234 11.1574 26.1316C11.1123 26.1387 11.0664 26.1387 11.0213 26.1316V26.1598Z" fill="#4EA8DE"/>
<path d="M14.8957 37.5958C14.7165 37.5901 14.538 37.6198 14.3706 37.683C14.2032 37.7462 14.0503 37.8416 13.9209 37.9638C13.7915 38.086 13.6881 38.2323 13.6169 38.3943C13.5458 38.5563 13.5082 38.7307 13.5063 38.9072V43.067C13.5063 43.4297 13.6527 43.7776 13.9133 44.0342C14.1738 44.2907 14.5272 44.4348 14.8957 44.4348C15.2641 44.4348 15.6175 44.2907 15.8781 44.0342C16.1386 43.7776 16.285 43.4297 16.285 43.067V38.9636C16.2907 38.7877 16.2608 38.6126 16.1971 38.4482C16.1333 38.2839 16.037 38.1337 15.9137 38.0064C15.7904 37.879 15.6425 37.7772 15.4788 37.7067C15.3151 37.6362 15.1388 37.5985 14.9601 37.5958H14.8957Z" fill="#5E60CE"/>
<path d="M7.1613 37.5958C6.97906 37.5863 6.79675 37.613 6.62521 37.6743C6.45367 37.7356 6.29641 37.8302 6.16278 37.9526C6.02915 38.0749 5.92188 38.2225 5.84736 38.3865C5.77284 38.5505 5.73259 38.7275 5.729 38.9072V43.067C5.729 43.4297 5.87538 43.7777 6.13593 44.0342C6.39648 44.2907 6.74986 44.4348 7.11833 44.4348C7.4868 44.4348 7.84018 44.2907 8.10073 44.0342C8.36128 43.7777 8.50765 43.4297 8.50765 43.067V38.9636C8.51337 38.7877 8.48349 38.6126 8.41974 38.4482C8.35599 38.2839 8.25965 38.1337 8.13634 38.0064C8.01302 37.879 7.8652 37.7772 7.70149 37.7067C7.53777 37.6362 7.36144 37.5985 7.18278 37.5958H7.1613Z" fill="#5E60CE"/>
<path d="M10.9211 37.5958C10.7424 37.592 10.5647 37.623 10.3981 37.6869C10.2316 37.7507 10.0795 37.8463 9.95044 37.9681C9.82142 38.0899 9.71804 38.2355 9.6462 38.3966C9.57435 38.5577 9.53546 38.7312 9.53174 38.9072V44.6392C9.53174 45.002 9.67811 45.3499 9.93866 45.6064C10.1992 45.8629 10.5526 46.007 10.9211 46.007C11.2895 46.007 11.6429 45.8629 11.9035 45.6064C12.164 45.3499 12.3104 45.002 12.3104 44.6392V38.9988C12.3161 38.823 12.2862 38.6478 12.2225 38.4835C12.1587 38.3191 12.0624 38.1689 11.9391 38.0416C11.8158 37.9143 11.6679 37.8124 11.5042 37.7419C11.3405 37.6714 11.1642 37.6337 10.9855 37.631L10.9211 37.5958Z" fill="#5E60CE"/>
</g>
<defs>
<clipPath id="clip0_1_187">
<rect width="22" height="36" fill="white" transform="translate(0 10)"/>
</clipPath>
</defs>
</svg>
